<svg xmlns="http://www.w3.org/2000/svg" width="174.818" height="37.803" viewBox="0 0 174.818 37.803"><defs><style>.a{fill:#2e4837;}</style></defs><g transform="translate(7.658 -59.765)"><g transform="translate(-7.657 59.765)"><g transform="translate(0 0)"><path class="a" d="M373.108,63.94c0-.8-.456-1.14-1.368-1.14H370.2v4.048h.627V65.081h.57l1.14,1.768h.684l-1.14-1.768A1.087,1.087,0,0,0,373.108,63.94Zm-2.281.627V63.313h.8c.4,0,.8.114.8.57,0,.513-.342.627-.8.627h-.8Z" transform="translate(-199.715 -51.852)"/><path class="a" d="M372.246,61.912A3.115,3.115,0,0,0,370.079,61a2.8,2.8,0,0,0-2.167.912A2.889,2.889,0,0,0,367,64.079a2.8,2.8,0,0,0,.912,2.167,2.889,2.889,0,0,0,2.167.912,3.115,3.115,0,0,0,3.079-3.079A2.889,2.889,0,0,0,372.246,61.912Zm-.228,4.105a2.584,2.584,0,0,1-1.939.8,2.737,2.737,0,1,1,1.939-4.676,2.816,2.816,0,0,1,.8,1.939A2.715,2.715,0,0,1,372.018,66.018Z" transform="translate(-198.339 -51.079)"/><path class="a" d="M126.564,58.7c-6.158,0-9.864,5.816-9.864,11.4,0,5.132,3.82,10.662,9.579,10.662,5.417,0,9.864-4.79,9.864-10.719C136.2,64.516,132.608,58.7,126.564,58.7Zm-.228,20.413c-4.105,0-4.961-7.184-4.961-9.921,0-.912.171-8.781,5.246-8.781,3.934,0,5.018,5.588,5.018,8.838C131.582,72.9,130.5,79.113,126.336,79.113Z" transform="translate(-90.757 -50.09)"/><path class="a" d="M283.322,49.587a2.994,2.994,0,1,0-3.022-2.965A3.019,3.019,0,0,0,283.322,49.587Z" transform="translate(-161.074 -43.6)"/><path class="a" d="M315.732,74.022V65.755c0-1.882,0-3.991-1.482-5.645a5.963,5.963,0,0,0-4.162-1.711c-2.452,0-4.961,1.54-6.557,3.079V58l-5.816,2.281v1.711h.114c1.482.228,1.54.969,1.654,2.851v9.18c0,3.478,0,3.991-1.768,4.333H297.6v1.654h7.755V78.356h-.114c-1.711-.342-1.711-.855-1.711-4.333V63.7c1.254-1.254,2.965-2.737,4.733-2.737,3.136,0,3.421,2.908,3.421,5.588v7.469c0,3.478,0,3.991-1.825,4.333h-.114v1.654h7.869V78.356H317.5C315.732,78.071,315.732,77.5,315.732,74.022Z" transform="translate(-168.51 -49.789)"/><path class="a" d="M285.63,74.065V58.1l-5.816,2.224v1.711h.114c1.482.228,1.539.969,1.654,2.851v9.123c0,3.364,0,3.991-1.768,4.333H279.7v1.711h7.812V78.4H287.4C285.63,78.114,285.63,77.543,285.63,74.065Z" transform="translate(-160.816 -49.832)"/><path class="a" d="M169.728,61.154v-1.6h-6.9v1.6h.114c.855.171,1.882.627,1.882,1.939a7.217,7.217,0,0,1-.627,2.281c-.057.228-.171.4-.228.627L160.6,74.9,156.67,64.8l-.057-.114a7.779,7.779,0,0,1-.627-2.167c0-.8.513-1.254,1.6-1.425h.114V59.5h-8.1v1.6l.114.057c1.2.285,1.654,1.425,2.11,2.623l.171.513,6.5,16.421h2.224l6.1-15.224.057-.171c.4-1.026,1.2-3.193,1.939-3.82a1.493,1.493,0,0,1,.741-.342Z" transform="translate(-104.897 -50.434)"/><path class="a" d="M97.543,46.254V44.6H89.959v1.654h.114c2.11.228,2.566,1.2,2.566,5.3v14.6l-15.224-21.5-.057-.057H71.2v1.654h.114c2.053.171,2.623,1.254,2.623,5.3V67.293c0,4.048-.513,5.075-2.623,5.3H71.2V74.25h7.583V72.6h-.114c-2.11-.228-2.566-1.2-2.566-5.3V50.131L93.209,74.193l.057.057h1.6V51.556c0-4.048.513-5.075,2.623-5.3Z" transform="translate(-71.2 -44.03)"/><path class="a" d="M226.614,67.919V43.8L220,45.967v1.882h.114c2.053.171,2.452.285,2.452,3.535V67.919c0,3.478,0,3.991-1.711,4.333h-.114v1.654h7.812V72.252h-.114C226.614,71.967,226.614,71.4,226.614,67.919Z" transform="translate(-135.156 -43.686)"/><path class="a" d="M202.333,77.459a1.425,1.425,0,0,1-.8.228c-1.14,0-1.14-1.825-1.14-2.737V65.2c0-1.768,0-3.649-1.6-4.961a9.092,9.092,0,0,0-5.531-1.54c-3.193,0-7.926,1.6-7.926,5.075a1.965,1.965,0,0,0,2.167,2c1.6,0,2.224-.912,2.623-2.224.57-2.167,1.6-3.136,3.364-3.136,1.882,0,2.851,1.425,2.851,4.39v2.68c-4.447.855-11.746,2.338-11.746,8.1a4.938,4.938,0,0,0,5.189,5.189c2.737,0,5.132-1.6,6.728-2.851a3.038,3.038,0,0,0,3.022,2.851,4.556,4.556,0,0,0,3.706-2.053l.057-.057-.8-1.311Zm-5.987-1.539a7.115,7.115,0,0,1-4.447,2.338,2.954,2.954,0,0,1-2.965-3.136c0-3.364,4.39-5.36,7.412-5.93Z" transform="translate(-119.941 -50.09)"/><path class="a" d="M352.076,77.8a1.38,1.38,0,0,1-.741.228c-1.14,0-1.14-1.825-1.14-2.737V65.6c0-1.768,0-3.649-1.6-4.961a9.092,9.092,0,0,0-5.531-1.54c-2.566,0-7.926,1.254-7.926,5.075a1.965,1.965,0,0,0,2.167,2c1.6,0,2.224-.855,2.623-2.224.513-2.167,1.6-3.136,3.364-3.136,1.882,0,2.851,1.425,2.851,4.39v2.68c-4.447.855-11.746,2.338-11.746,8.1a4.908,4.908,0,0,0,5.189,5.189c2.11,0,4.276-.912,6.728-2.851a3.038,3.038,0,0,0,3.022,2.851,4.719,4.719,0,0,0,3.706-2l.057-.057-.855-1.311Zm-5.93-1.539A7.115,7.115,0,0,1,341.7,78.6a2.954,2.954,0,0,1-2.965-3.136c0-3.364,4.39-5.36,7.412-5.93Z" transform="translate(-184.327 -50.262)"/><path class="a" d="M256.74,58.4a6.685,6.685,0,0,0-4.39,2.224,8.66,8.66,0,0,0-5.7-2c-4.276,0-8.724,2.851-8.724,7.583a7.488,7.488,0,0,0,3.421,6.443c-1.711.456-3.592,1.539-3.592,3.193s2.281,2.395,3.82,2.908c.114.057.228.057.285.114a3.214,3.214,0,0,0-.684.228c-2.281.684-5.474,1.6-5.474,4.276,0,.228.057.4.057.627.8,3.535,8.325,3.763,10.662,3.763,3.877,0,8.724-.627,9.978-3.763a4.948,4.948,0,0,0,.285-1.6c0-3.535-4.048-4.5-6.956-5.189a9.266,9.266,0,0,0-1.083-.228l-3.364-.8a2.586,2.586,0,0,0-.456-.114c-.969-.228-3.022-.741-3.022-1.6,0-.513.627-.741,1.083-.912a9.648,9.648,0,0,0,3.535.627c4.105,0,8.5-2.908,8.5-7.583a7.615,7.615,0,0,0-1.654-4.9,1.2,1.2,0,0,1,.57-.228,2.032,2.032,0,0,1,1.483.8,2.346,2.346,0,0,0,1.768.912,2.077,2.077,0,0,0,1.882-2.167A2.281,2.281,0,0,0,256.74,58.4ZM244.367,79.5h.114l5.7,1.6.114.057c1.14.342,2.851.912,2.851,2.338,0,0-.057.228-.114.4-.4,1.368-2.737,2.11-6.386,2.11h-.171c-3.934,0-5.246-.912-5.873-1.254a2.212,2.212,0,0,1-.741-.912,1.518,1.518,0,0,1-.171-.684C239.748,80.979,242.656,80.067,244.367,79.5Zm2.224-7.127c-3.022,0-4.39-2.965-4.39-5.873,0-2.167.912-6.215,4.276-6.215,2.965,0,4.105,3.877,4.105,6.329C250.582,67.979,250.3,72.37,246.591,72.37Z" transform="translate(-141.905 -49.961)"/></g></g></g></svg>