<svg xmlns="http://www.w3.org/2000/svg" xmlns:xlink="http://www.w3.org/1999/xlink" width="709.752" height="489.11" viewBox="0 0 709.752 489.11"><defs><style>.a{opacity:0.117;clip-path:url(#a);}.b{fill:#8ebb37;}.c{fill:#b1d072;}.d{fill:#c4271a;opacity:0.96;}.e{fill:#c5311f;opacity:0.961;}.f{fill:#c73924;opacity:0.963;}.g{fill:#c84029;opacity:0.964;}.h{fill:#ca492e;opacity:0.965;}.i{fill:#cb5034;opacity:0.966;}.j{fill:#cd583a;opacity:0.968;}.k{fill:#cf6040;opacity:0.969;}.l{fill:#d06747;opacity:0.97;}.m{fill:#d26f4d;opacity:0.972;}.n{fill:#d47654;opacity:0.973;}.o{fill:#d67d5b;opacity:0.974;}.p{fill:#d88463;opacity:0.975;}.q{fill:#da8b6a;opacity:0.977;}.r{fill:#dc9272;opacity:0.978;}.s{fill:#de997a;opacity:0.979;}.t{fill:#e0a081;opacity:0.981;}.u{fill:#e2a789;opacity:0.982;}.v{fill:#e4ae91;opacity:0.983;}.w{fill:#e6b49a;opacity:0.984;}.x{fill:#e8bba2;opacity:0.986;}.y{fill:#ebc2aa;opacity:0.987;}.z{fill:#edc8b3;opacity:0.988;}.aa{fill:#efcebb;opacity:0.99;}.ab{fill:#f1d5c4;opacity:0.991;}.ac{fill:#f3dbcc;opacity:0.992;}.ad{fill:#f5e1d5;opacity:0.993;}.ae{fill:#f7e7dd;opacity:0.995;}.af{fill:#f9ede6;opacity:0.996;}.ag{fill:#fbf3ee;opacity:0.997;}.ah{fill:#fdf9f7;opacity:0.999;}.ai{fill:#fff;}.aj{fill:#c7dd98;}</style><clipPath id="a"><rect width="709.752" height="489.11" transform="translate(0)"/></clipPath></defs><g class="a" transform="translate(0)"><g transform="translate(78.352 299.334)"><path class="b" d="M873.253-232.175h-782a38.036,38.036,0,0,0-38.159,37.82V359.709a44.688,44.688,0,0,0,.339,4.749,56.229,56.229,0,0,1-19.334-42.4V-194.355C34.1-225.73,59.709-251,91.423-251h782v18.825Z" transform="translate(-34.1 251)"/></g><path class="c" d="M136.664-207.175h-33.58c-36.972,0-66.82,29.679-66.82,66.142v497.42a70.411,70.411,0,0,0,2.714,18.995A84.632,84.632,0,0,1,17.1,318.567v-459.6C17.1-188.011,55.6-226,102.915-226h33.749a9.482,9.482,0,0,1,9.5,9.5A9.235,9.235,0,0,1,136.664-207.175Z" transform="translate(32.421 497.012)"/><path class="c" d="M123.876,136.495h-.509A9.628,9.628,0,0,1,113.7,127a9.52,9.52,0,0,1,9.667-9.5H817.686v18.825H123.876Z" transform="translate(99.649 153.342)"/><g transform="translate(182.992 268.637)"><path class="d" d="M95.8,127.72A12.72,12.72,0,1,0,108.52,115,12.7,12.7,0,0,0,95.8,127.72Z" transform="translate(-95.8 -115)"/><path class="e" d="M95.9,127.515A12.3,12.3,0,1,0,108.28,115.3,12.2,12.2,0,0,0,95.9,127.515Z" transform="translate(-95.73 -114.795)"/><path class="f" d="M96,127.472A11.872,11.872,0,1,0,107.872,115.6,11.8,11.8,0,0,0,96,127.472Z" transform="translate(-95.661 -114.922)"/><path class="g" d="M96.1,127.332A11.532,11.532,0,1,0,107.632,115.8,11.437,11.437,0,0,0,96.1,127.332Z" transform="translate(-95.591 -114.782)"/><path class="h" d="M96.2,127.293A11.193,11.193,0,1,0,107.393,116.1,11.182,11.182,0,0,0,96.2,127.293Z" transform="translate(-95.522 -114.913)"/><path class="i" d="M96.3,127.089A10.684,10.684,0,1,0,106.984,116.4,10.64,10.64,0,0,0,96.3,127.089Z" transform="translate(-95.452 -114.708)"/><path class="j" d="M96.4,127.045A10.345,10.345,0,1,0,106.745,116.7,10.386,10.386,0,0,0,96.4,127.045Z" transform="translate(-95.382 -114.834)"/><path class="k" d="M96.5,126.906A10.006,10.006,0,1,0,106.506,116.9,10.024,10.024,0,0,0,96.5,126.906Z" transform="translate(-95.313 -114.695)"/><path class="l" d="M96.6,126.867a9.667,9.667,0,1,0,9.667-9.667A9.888,9.888,0,0,0,96.6,126.867Z" transform="translate(-95.243 -114.826)"/><path class="m" d="M96.7,126.663a9.158,9.158,0,1,0,9.158-9.158A9.12,9.12,0,0,0,96.7,126.663Z" transform="translate(-95.174 -114.622)"/><path class="n" d="M96.8,126.619a8.819,8.819,0,1,0,8.819-8.819A8.867,8.867,0,0,0,96.8,126.619Z" transform="translate(-95.104 -114.747)"/><path class="o" d="M96.9,126.48a8.48,8.48,0,1,0,8.48-8.48A8.5,8.5,0,0,0,96.9,126.48Z" transform="translate(-95.034 -114.608)"/><path class="p" d="M97,126.441a8.142,8.142,0,0,0,8.141,8.141,8.036,8.036,0,0,0,8.141-8.141,8.141,8.141,0,1,0-16.281,0Z" transform="translate(-94.965 -114.739)"/><path class="q" d="M97.1,126.238a7.632,7.632,0,1,0,7.632-7.632A7.493,7.493,0,0,0,97.1,126.238Z" transform="translate(-94.895 -114.536)"/><path class="r" d="M97.2,126.193a7.293,7.293,0,1,0,7.293-7.293A7.347,7.347,0,0,0,97.2,126.193Z" transform="translate(-94.826 -114.66)"/><path class="s" d="M97.4,126.053a6.953,6.953,0,1,0,6.953-6.953A6.877,6.877,0,0,0,97.4,126.053Z" transform="translate(-94.686 -114.521)"/><path class="t" d="M97.5,126.114a6.48,6.48,0,0,0,6.614,6.445,6.53,6.53,0,1,0,0-13.059A6.733,6.733,0,0,0,97.5,126.114Z" transform="translate(-94.617 -114.751)"/><path class="u" d="M97.6,125.813a6.105,6.105,0,1,0,6.105-6.105A5.877,5.877,0,0,0,97.6,125.813Z" transform="translate(-94.547 -114.45)"/><path class="v" d="M97.7,125.766A5.766,5.766,0,1,0,103.466,120,5.719,5.719,0,0,0,97.7,125.766Z" transform="translate(-94.478 -114.573)"/><path class="w" d="M97.8,125.627a5.427,5.427,0,1,0,5.427-5.427A5.358,5.358,0,0,0,97.8,125.627Z" transform="translate(-94.408 -114.434)"/><path class="x" d="M97.9,125.518a4.918,4.918,0,1,0,4.918-4.918A4.922,4.922,0,0,0,97.9,125.518Z" transform="translate(-94.339 -114.495)"/><path class="y" d="M98,125.479a4.579,4.579,0,1,0,4.579-4.579A4.56,4.56,0,0,0,98,125.479Z" transform="translate(-94.269 -114.625)"/><path class="z" d="M98.1,125.34a4.24,4.24,0,1,0,4.24-4.24A4.2,4.2,0,0,0,98.1,125.34Z" transform="translate(-94.199 -114.486)"/><path class="aa" d="M98.2,125.3a3.9,3.9,0,1,0,3.9-3.9A4.061,4.061,0,0,0,98.2,125.3Z" transform="translate(-94.13 -114.616)"/><path class="ab" d="M98.3,125.092a3.392,3.392,0,1,0,3.392-3.392A3.4,3.4,0,0,0,98.3,125.092Z" transform="translate(-94.06 -114.407)"/><path class="ac" d="M98.4,125.053A3.053,3.053,0,1,0,101.453,122,3.04,3.04,0,0,0,98.4,125.053Z" transform="translate(-93.991 -114.538)"/><path class="ad" d="M98.5,124.913a2.714,2.714,0,1,0,2.714-2.713A2.679,2.679,0,0,0,98.5,124.913Z" transform="translate(-93.921 -114.399)"/><path class="ae" d="M98.6,124.874a2.374,2.374,0,1,0,2.374-2.374A2.549,2.549,0,0,0,98.6,124.874Z" transform="translate(-93.851 -114.529)"/><path class="af" d="M98.7,124.666a1.866,1.866,0,1,0,1.866-1.866A1.882,1.882,0,0,0,98.7,124.666Z" transform="translate(-93.782 -114.32)"/><path class="ag" d="M98.8,124.626a1.526,1.526,0,1,0,1.526-1.526A1.52,1.52,0,0,0,98.8,124.626Z" transform="translate(-93.712 -114.451)"/><path class="ah" d="M98.9,124.487a1.187,1.187,0,1,0,1.187-1.187A1.159,1.159,0,0,0,98.9,124.487Z" transform="translate(-93.643 -114.312)"/><path class="ai" d="M99,124.448a.776.776,0,0,0,.678.848.8.8,0,0,0,.848-.848.909.909,0,0,0-.848-.848A1.127,1.127,0,0,0,99,124.448Z" transform="translate(-93.573 -114.442)"/></g><g transform="translate(20.86 242.69)"><path class="aj" d="M897.863-182.175H114.846c-52.744,0-95.482,42.229-95.482,94.464V353.065a94.03,94.03,0,0,0,6.105,33.24A112.437,112.437,0,0,1,.2,315.245V-87.711C.2-150.291,51.418-201,114.676-201H897.863Z" transform="translate(-0.2 201)"/></g></g></svg>