<svg xmlns="http://www.w3.org/2000/svg" xmlns:xlink="http://www.w3.org/1999/xlink" width="492" height="511" viewBox="0 0 492 511"><defs><style>.a{fill:#fff;}.b{clip-path:url(#a);}.c{clip-path:url(#b);}.d,.e,.f{opacity:0.5;}.d{fill:url(#c);}.e{fill:url(#d);}.f{fill:url(#e);}.g{fill:#8ebb37;}.h{fill:#b1d072;}.i{fill:#c4271a;opacity:0.96;}.j{fill:#c5311f;opacity:0.961;}.k{fill:#c73924;opacity:0.963;}.l{fill:#c84029;opacity:0.964;}.m{fill:#ca492e;opacity:0.965;}.n{fill:#cb5034;opacity:0.966;}.o{fill:#cd583a;opacity:0.968;}.p{fill:#cf6040;opacity:0.969;}.q{fill:#d06747;opacity:0.97;}.r{fill:#d26f4d;opacity:0.972;}.s{fill:#d47654;opacity:0.973;}.t{fill:#d67d5b;opacity:0.974;}.u{fill:#d88463;opacity:0.975;}.v{fill:#da8b6a;opacity:0.977;}.w{fill:#dc9272;opacity:0.978;}.x{fill:#de997a;opacity:0.979;}.y{fill:#e0a081;opacity:0.981;}.z{fill:#e2a789;opacity:0.982;}.aa{fill:#e4ae91;opacity:0.983;}.ab{fill:#e6b49a;opacity:0.984;}.ac{fill:#e8bba2;opacity:0.986;}.ad{fill:#ebc2aa;opacity:0.987;}.ae{fill:#edc8b3;opacity:0.988;}.af{fill:#efcebb;opacity:0.99;}.ag{fill:#f1d5c4;opacity:0.991;}.ah{fill:#f3dbcc;opacity:0.992;}.ai{fill:#f5e1d5;opacity:0.993;}.aj{fill:#f7e7dd;opacity:0.995;}.ak{fill:#f9ede6;opacity:0.996;}.al{fill:#fbf3ee;opacity:0.997;}.am{fill:#fdf9f7;opacity:0.999;}.an{fill:#c7dd98;}</style><clipPath id="a"><rect class="a" width="492" height="511"/></clipPath><clipPath id="b"><rect width="849.739" height="585.579"/></clipPath><linearGradient id="c" x1="108.221" y1="-7.927" x2="108.221" y2="-6.927" gradientUnits="objectBoundingBox"><stop offset="0" stop-color="#fff" stop-opacity="0"/><stop offset="0.002" stop-color="#fff" stop-opacity="0.004"/><stop offset="0.175" stop-color="#eef3dd" stop-opacity="0.282"/><stop offset="0.341" stop-color="#e1eac5" stop-opacity="0.549"/><stop offset="0.493" stop-color="#dae5b6" stop-opacity="0.796"/><stop offset="0.62" stop-color="#d7e3b1"/></linearGradient><linearGradient id="d" x1="111.136" y1="-9.275" x2="111.136" y2="-8.275" gradientUnits="objectBoundingBox"><stop offset="0" stop-color="#fff" stop-opacity="0"/><stop offset="0.002" stop-color="#fff" stop-opacity="0.004"/><stop offset="0.165" stop-color="#eef3dd" stop-opacity="0.282"/><stop offset="0.32" stop-color="#e1eac5" stop-opacity="0.549"/><stop offset="0.464" stop-color="#dae5b6" stop-opacity="0.796"/><stop offset="0.583" stop-color="#d7e3b1"/></linearGradient><linearGradient id="e" x1="108.218" y1="-10.656" x2="108.218" y2="-9.656" gradientUnits="objectBoundingBox"><stop offset="0" stop-color="#fff" stop-opacity="0"/><stop offset="0.024" stop-color="#fcfdfa" stop-opacity="0.039"/><stop offset="0.191" stop-color="#eaf2d8" stop-opacity="0.31"/><stop offset="0.351" stop-color="#ddeac0" stop-opacity="0.565"/><stop offset="0.498" stop-color="#d6e6b1" stop-opacity="0.804"/><stop offset="0.62" stop-color="#d3e4ac"/></linearGradient></defs><g class="b"><g transform="translate(-370.229 -74.579)"><g class="c"><rect class="d" width="23.147" height="417.864" transform="translate(802.023 139.897)"/><rect class="e" width="22.538" height="357.154" transform="translate(767.506 200.607)"/><rect class="f" width="23.147" height="310.86" transform="translate(734.613 246.901)"/></g><g class="c"><g transform="translate(-248.932 358.372)"><path class="g" d="M.2,22.538H936.438c25.177,0,45.685,20.3,45.685,45.279V731.161a53.52,53.52,0,0,1-.406,5.685,67.319,67.319,0,0,0,23.147-50.761V67.817C1004.864,30.254,974.2,0,936.235,0H0V22.538Z" transform="translate(0 0)"/></g><path class="h" d="M11.376,22.538h40.2c44.264,0,80,35.533,80,79.187V697.253a84.3,84.3,0,0,1-3.249,22.741,101.325,101.325,0,0,0,26.193-68.02V101.725C154.522,45.482,108.431,0,51.782,0H11.376A11.352,11.352,0,0,0,.006,11.37,11.056,11.056,0,0,0,11.376,22.538Z" transform="translate(635.928 324.464)"/><path class="h" d="M830.652,22.741h.609a11.526,11.526,0,0,0,11.573-11.37A11.4,11.4,0,0,0,831.262,0H0V22.538H830.652Z" transform="translate(-248.526 324.261)"/><g transform="translate(600.198 321.622)"><path class="i" d="M30.457,15.228A15.228,15.228,0,1,1,15.228,0,15.208,15.208,0,0,1,30.457,15.228Z"/><path class="j" d="M29.441,14.624A14.6,14.6,0,0,1,14.619,29.243,14.619,14.619,0,0,1,14.619,0,14.479,14.479,0,0,1,29.441,14.624Z" transform="translate(0.812 0.605)"/><path class="k" d="M28.426,14.213A14.126,14.126,0,0,1,14.213,28.426,14.126,14.126,0,0,1,0,14.213,14.126,14.126,0,0,1,14.213,0,14.126,14.126,0,0,1,28.426,14.213Z" transform="translate(1.624 0.812)"/><path class="l" d="M27.614,13.807A13.693,13.693,0,0,1,13.807,27.614,13.693,13.693,0,0,1,0,13.807a13.807,13.807,0,0,1,27.614,0Z" transform="translate(2.233 1.218)"/><path class="m" d="M26.8,13.4A13.4,13.4,0,1,1,13.4,0,13.388,13.388,0,0,1,26.8,13.4Z" transform="translate(2.843 1.421)"/><path class="n" d="M25.584,12.8A12.792,12.792,0,1,1,12.792.005,12.739,12.739,0,0,1,25.584,12.8Z" transform="translate(3.858 2.025)"/><path class="o" d="M24.771,12.386A12.306,12.306,0,0,1,12.386,24.771,12.306,12.306,0,0,1,0,12.386,12.306,12.306,0,0,1,12.386,0,12.435,12.435,0,0,1,24.771,12.386Z" transform="translate(4.467 2.233)"/><path class="p" d="M23.959,11.98a11.873,11.873,0,0,1-11.98,11.98A11.873,11.873,0,0,1,0,11.98,11.873,11.873,0,0,1,11.98,0,12,12,0,0,1,23.959,11.98Z" transform="translate(5.076 2.64)"/><path class="q" d="M23.147,11.573A11.573,11.573,0,1,1,11.574,0,11.838,11.838,0,0,1,23.147,11.573Z" transform="translate(5.685 2.843)"/><path class="r" d="M21.929,10.97A10.964,10.964,0,1,1,10.964.006,10.919,10.919,0,0,1,21.929,10.97Z" transform="translate(6.7 3.446)"/><path class="s" d="M21.117,10.558A10.486,10.486,0,0,1,10.558,21.117,10.486,10.486,0,0,1,0,10.558,10.486,10.486,0,0,1,10.558,0,10.615,10.615,0,0,1,21.117,10.558Z" transform="translate(7.31 3.655)"/><path class="t" d="M20.3,10.152A10.054,10.054,0,0,1,10.152,20.3,10.054,10.054,0,0,1,0,10.152,10.054,10.054,0,0,1,10.152,0,10.182,10.182,0,0,1,20.3,10.152Z" transform="translate(7.919 4.061)"/><path class="u" d="M19.492,9.746a9.748,9.748,0,0,1-9.746,9.746A9.621,9.621,0,0,1,0,9.746a9.746,9.746,0,1,1,19.492,0Z" transform="translate(8.528 4.264)"/><path class="v" d="M18.274,9.144A9.137,9.137,0,1,1,9.137.007,8.971,8.971,0,0,1,18.274,9.144Z" transform="translate(9.543 4.866)"/><path class="w" d="M17.462,8.731a8.666,8.666,0,0,1-8.731,8.731A8.666,8.666,0,0,1,0,8.731,8.666,8.666,0,0,1,8.731,0,8.8,8.8,0,0,1,17.462,8.731Z" transform="translate(10.152 5.076)"/><path class="x" d="M16.65,8.325A8.234,8.234,0,0,1,8.325,16.65,8.234,8.234,0,0,1,0,8.325,8.234,8.234,0,0,1,8.325,0,8.234,8.234,0,0,1,16.65,8.325Z" transform="translate(10.558 5.482)"/><path class="y" d="M15.837,7.919a7.759,7.759,0,0,1-7.919,7.716A7.888,7.888,0,0,1,0,7.919,7.928,7.928,0,0,1,7.919,0,8.061,8.061,0,0,1,15.837,7.919Z" transform="translate(11.167 5.685)"/><path class="z" d="M14.619,7.319A7.31,7.31,0,1,1,7.31.009,7.036,7.036,0,0,1,14.619,7.319Z" transform="translate(12.183 6.285)"/><path class="aa" d="M13.807,6.9a6.847,6.847,0,0,1-6.9,6.9A6.847,6.847,0,0,1,0,6.9,6.847,6.847,0,0,1,6.9,0,6.846,6.846,0,0,1,13.807,6.9Z" transform="translate(12.792 6.497)"/><path class="ab" d="M12.995,6.5a6.414,6.414,0,0,1-6.5,6.5A6.414,6.414,0,0,1,0,6.5,6.414,6.414,0,0,1,6.5,0,6.414,6.414,0,0,1,12.995,6.5Z" transform="translate(13.401 6.903)"/><path class="ac" d="M11.777,5.888A5.888,5.888,0,1,1,5.888,0,5.893,5.893,0,0,1,11.777,5.888Z" transform="translate(14.416 7.31)"/><path class="ad" d="M10.964,5.482A5.482,5.482,0,1,1,5.482,0,5.459,5.459,0,0,1,10.964,5.482Z" transform="translate(15.025 7.513)"/><path class="ae" d="M10.152,5.076a5.027,5.027,0,0,1-5.076,5.076A5.027,5.027,0,0,1,0,5.076,5.027,5.027,0,0,1,5.076,0,5.027,5.027,0,0,1,10.152,5.076Z" transform="translate(15.634 7.919)"/><path class="af" d="M9.34,4.67A4.6,4.6,0,0,1,4.67,9.34,4.6,4.6,0,0,1,0,4.67,4.6,4.6,0,0,1,4.67,0,4.862,4.862,0,0,1,9.34,4.67Z" transform="translate(16.244 8.122)"/><path class="ag" d="M8.122,4.061A4.061,4.061,0,1,1,4.061,0,4.073,4.073,0,0,1,8.122,4.061Z" transform="translate(17.259 8.731)"/><path class="ah" d="M7.31,3.655A3.655,3.655,0,1,1,3.655,0,3.64,3.64,0,0,1,7.31,3.655Z" transform="translate(17.868 8.934)"/><path class="ai" d="M6.5,3.249A3.207,3.207,0,0,1,3.249,6.5,3.207,3.207,0,0,1,0,3.249,3.207,3.207,0,0,1,3.249,0,3.207,3.207,0,0,1,6.5,3.249Z" transform="translate(18.477 9.34)"/><path class="aj" d="M5.685,2.843A2.776,2.776,0,0,1,2.843,5.685,2.776,2.776,0,0,1,0,2.843,2.776,2.776,0,0,1,2.843,0,3.051,3.051,0,0,1,5.685,2.843Z" transform="translate(19.086 9.543)"/><path class="ak" d="M4.467,2.233A2.253,2.253,0,0,1,2.233,4.467,2.253,2.253,0,0,1,0,2.233,2.253,2.253,0,0,1,2.233,0,2.253,2.253,0,0,1,4.467,2.233Z" transform="translate(20.101 10.152)"/><path class="al" d="M3.655,1.827A1.827,1.827,0,1,1,1.827,0,1.82,1.82,0,0,1,3.655,1.827Z" transform="translate(20.71 10.355)"/><path class="am" d="M2.843,1.421A1.388,1.388,0,0,1,1.421,2.843,1.388,1.388,0,0,1,0,1.421,1.388,1.388,0,0,1,1.421,0,1.388,1.388,0,0,1,2.843,1.421Z" transform="translate(21.32 10.761)"/><path class="a" d="M1.827,1.015A.929.929,0,0,1,1.015,2.03.959.959,0,0,1,0,1.015,1.088,1.088,0,0,1,1.015,0,1.349,1.349,0,0,1,1.827,1.015Z" transform="translate(22.132 10.964)"/></g><g transform="translate(-249.947 290.556)"><path class="an" d="M0,22.538H937.454c63.147,0,114.314,50.558,114.314,113.1V663.344a112.573,112.573,0,0,1-7.31,39.8,134.613,134.613,0,0,0,30.254-85.075V135.633C1074.711,60.71,1013.392,0,937.657,0H0Z" transform="translate(0 0)"/></g></g></g></g></svg>