<svg xmlns="http://www.w3.org/2000/svg" xmlns:xlink="http://www.w3.org/1999/xlink" width="734" height="925" viewBox="0 0 734 925"><defs><style>.a{fill:#fff;stroke:#707070;}.b{clip-path:url(#a);}.c,.e{fill:none;}.c{stroke:#8ebb37;stroke-width:10px;opacity:0.56;}.d{stroke:none;}</style><clipPath id="a"><rect class="a" width="734" height="925" transform="translate(1254 155)"/></clipPath></defs><g class="b" transform="translate(-1254 -155)"><g class="c" transform="translate(1988 1057) rotate(180)"><path class="d" d="M0,0H512A200,200,0,0,1,712,200v837a0,0,0,0,1,0,0H0a0,0,0,0,1,0,0V0A0,0,0,0,1,0,0Z"/><path class="e" d="M10,5H512A195,195,0,0,1,707,200v827a5,5,0,0,1-5,5H10a5,5,0,0,1-5-5V10A5,5,0,0,1,10,5Z"/></g></g></svg>