<svg xmlns="http://www.w3.org/2000/svg" xmlns:xlink="http://www.w3.org/1999/xlink" width="187" height="194" viewBox="0 0 187 194"><defs><style>.a{fill:#fff;}.b{opacity:0.599;clip-path:url(#a);}.c{clip-path:url(#b);}.d,.e,.f{opacity:0.5;}.d{fill:url(#c);}.e{fill:url(#d);}.f{fill:url(#e);}.g{fill:#8ebb37;}.h{fill:#b1d072;}.i{fill:#c7dd98;}</style><clipPath id="a"><rect class="a" width="187" height="194"/></clipPath><clipPath id="b"><rect width="322.126" height="221.986"/></clipPath><linearGradient id="c" x1="108.221" y1="8.927" x2="108.221" y2="7.927" gradientUnits="objectBoundingBox"><stop offset="0" stop-color="#fff" stop-opacity="0"/><stop offset="0.002" stop-color="#fff" stop-opacity="0.004"/><stop offset="0.175" stop-color="#eef3dd" stop-opacity="0.282"/><stop offset="0.341" stop-color="#e1eac5" stop-opacity="0.549"/><stop offset="0.493" stop-color="#dae5b6" stop-opacity="0.796"/><stop offset="0.62" stop-color="#d7e3b1"/></linearGradient><linearGradient id="d" x1="111.136" y1="10.275" x2="111.136" y2="9.275" gradientUnits="objectBoundingBox"><stop offset="0" stop-color="#fff" stop-opacity="0"/><stop offset="0.002" stop-color="#fff" stop-opacity="0.004"/><stop offset="0.165" stop-color="#eef3dd" stop-opacity="0.282"/><stop offset="0.32" stop-color="#e1eac5" stop-opacity="0.549"/><stop offset="0.464" stop-color="#dae5b6" stop-opacity="0.796"/><stop offset="0.583" stop-color="#d7e3b1"/></linearGradient><linearGradient id="e" x1="108.218" y1="11.656" x2="108.218" y2="10.656" gradientUnits="objectBoundingBox"><stop offset="0" stop-color="#fff" stop-opacity="0"/><stop offset="0.024" stop-color="#fcfdfa" stop-opacity="0.039"/><stop offset="0.191" stop-color="#eaf2d8" stop-opacity="0.31"/><stop offset="0.351" stop-color="#ddeac0" stop-opacity="0.565"/><stop offset="0.498" stop-color="#d6e6b1" stop-opacity="0.804"/><stop offset="0.62" stop-color="#d3e4ac"/></linearGradient></defs><g class="b"><g transform="translate(-139.86 0)"><g class="c"><rect class="d" width="8.775" height="158.407" transform="translate(304.037 10.545)"/><rect class="e" width="8.544" height="135.393" transform="translate(290.952 10.545)"/><rect class="f" width="8.775" height="117.843" transform="translate(278.483 10.545)"/></g><g class="c"><g transform="translate(-94.367 -193.198)"><path class="g" d="M.077,270.786H354.992a17.263,17.263,0,0,0,17.319-17.165V2.155A20.287,20.287,0,0,0,372.157,0a25.52,25.52,0,0,1,8.775,19.243V253.621a25.821,25.821,0,0,1-26.016,25.708H0v-8.544Z" transform="translate(0 0)"/></g><path class="h" d="M4.313,264.4h15.24A30.174,30.174,0,0,0,49.88,234.378V8.621A31.957,31.957,0,0,0,48.648,0a38.411,38.411,0,0,1,9.929,25.785V234.378A38.764,38.764,0,0,1,19.63,272.941H4.313A4.3,4.3,0,0,1,0,268.63,4.191,4.191,0,0,1,4.313,264.4Z" transform="translate(241.072 -173.956)"/><path class="h" d="M314.89,0h.231a4.37,4.37,0,0,1,4.387,4.31,4.321,4.321,0,0,1-4.387,4.31H0V.077H314.89Z" transform="translate(-94.213 90.441)"/><g transform="translate(-94.752 -154.713)"><path class="i" d="M0,258.008H355.377a43.084,43.084,0,0,0,43.335-42.873V15.086A42.675,42.675,0,0,0,395.941,0,51.03,51.03,0,0,1,407.41,32.251V215.135c0,28.4-23.245,51.417-51.956,51.417H0Z" transform="translate(0 0)"/></g></g></g></g></svg>