<svg xmlns="http://www.w3.org/2000/svg" width="23" height="20.215" viewBox="0 0 23 20.215"><defs><style>.a{fill:#fff;}</style></defs><path class="a" d="M7.41,13.367H19.631a.673.673,0,0,0,.648-.485l2.7-9.357a.664.664,0,0,0-.11-.586.676.676,0,0,0-.538-.266H5.856L5.375.523A.673.673,0,0,0,4.717,0H.674a.668.668,0,1,0,0,1.337h3.5L6.609,12.2a2,2,0,0,0,.8,3.845H19.631a.668.668,0,1,0,0-1.337H7.412a.668.668,0,1,1,0-1.337ZM21.433,4.01l-2.31,8.02H7.953l-1.8-8.02Zm0,0"/><path class="a" d="M150,362.087A2.087,2.087,0,1,0,152.087,360,2.09,2.09,0,0,0,150,362.087Zm2.087-.7a.7.7,0,1,1-.7.7A.7.7,0,0,1,152.087,361.392Zm0,0" transform="translate(-143.309 -343.96)"/><path class="a" d="M362,362.087A2.087,2.087,0,1,0,364.087,360,2.09,2.09,0,0,0,362,362.087Zm2.087-.7a.7.7,0,1,1-.7.7A.7.7,0,0,1,364.087,361.392Zm0,0" transform="translate(-345.958 -343.96)"/></svg>